<?xml version="1.0" encoding="UTF-8" standalone="no"?>
<!-- Created with Inkscape (http://www.inkscape.org/) -->

<svg
   width="13.758311mm"
   height="13.758311mm"
   viewBox="0 0 13.758311 13.758311"
   version="1.1"
   id="svg1"
   inkscape:version="1.4 (e7c3feb1, 2024-10-09)"
   sodipodi:docname="inclusive.svg"
   xmlns:inkscape="http://www.inkscape.org/namespaces/inkscape"
   xmlns:sodipodi="http://sodipodi.sourceforge.net/DTD/sodipodi-0.dtd"
   xmlns="http://www.w3.org/2000/svg"
   xmlns:svg="http://www.w3.org/2000/svg">
  <sodipodi:namedview
     id="namedview1"
     pagecolor="#ffffff"
     bordercolor="#000000"
     borderopacity="0.25"
     inkscape:showpageshadow="2"
     inkscape:pageopacity="0.0"
     inkscape:pagecheckerboard="0"
     inkscape:deskcolor="#d1d1d1"
     inkscape:document-units="mm"
     inkscape:zoom="8.8470394"
     inkscape:cx="30.349136"
     inkscape:cy="27.636364"
     inkscape:window-width="1104"
     inkscape:window-height="784"
     inkscape:window-x="0"
     inkscape:window-y="38"
     inkscape:window-maximized="0"
     inkscape:current-layer="layer1" />
  <defs
     id="defs1" />
  <g
     inkscape:label="Layer 1"
     inkscape:groupmode="layer"
     id="layer1"
     transform="translate(-101.73231,-141.68439)">
    <path
       style="display:inline;fill:#22242a;stroke-linecap:round;stroke-linejoin:round;stroke-width:0;stroke-dasharray:none;stroke:none"
       d="m 25,10.75 c -7.855252,0 -14.25,6.394748 -14.25,14.25 0,7.855252 6.394748,14.25 14.25,14.25 7.855252,0 14.25,-6.394748 14.25,-14.25 0,-7.855252 -6.394748,-14.25 -14.25,-14.25 z m 0,2.5 c 6.504152,0 11.75,5.245848 11.75,11.75 0,6.504152 -5.245848,11.75 -11.75,11.75 -6.504152,0 -11.75,-5.245848 -11.75,-11.75 0,-6.504152 5.245848,-11.75 11.75,-11.75 z"
       id="path2"
       transform="matrix(0.26458333,0,0,0.26458333,101.99688,141.94896)" />
    <rect
       x="102.52605"
       y="142.47813"
       rx="1.0583333"
       width="12.170834"
       height="12.170834"
       class="djs-outline"
       style="fill:none;stroke-width:0.264583"
       id="rect105" />
  </g>
</svg>
